

<svg
   xmlns:dc="http://purl.org/dc/elements/1.1/"
   xmlns:cc="http://creativecommons.org/ns#"
   xmlns:rdf="http://www.w3.org/1999/02/22-rdf-syntax-ns#"
   xmlns:svg="http://www.w3.org/2000/svg"
   xmlns="http://www.w3.org/2000/svg"
   xmlns:xlink="http://www.w3.org/1999/xlink"
   xmlns:sodipodi="http://sodipodi.sourceforge.net/DTD/sodipodi-0.dtd"
   xmlns:inkscape="http://www.inkscape.org/namespaces/inkscape"
   width="793.70081"
   height="1122.5197"
   viewBox="0 0 210 297"
   version="1.1"
   id="svg9"
   inkscape:version="0.92.4 (5da689c313, 2019-01-14)"
   sodipodi:docname="logo.svg">
  <defs
     id="defs2" />
  <sodipodi:namedview
     id="base"
     pagecolor="#ffffff"
     bordercolor="#666666"
     borderopacity="1.0"
     inkscape:pageopacity="0.0"
     inkscape:pageshadow="2"
     inkscape:zoom="0.82177275"
     inkscape:cx="487.17032"
     inkscape:cy="659.55119"
     inkscape:document-units="px"
     inkscape:current-layer="layer1"
     showgrid="false"
     units="px"
     inkscape:window-width="1366"
     inkscape:window-height="745"
     inkscape:window-x="-8"
     inkscape:window-y="-8"
     inkscape:window-maximized="1" />
  <metadata
     id="metadata5">
    <rdf:RDF>
      <cc:Work
         rdf:about="">
        <dc:format>image/svg+xml</dc:format>
        <dc:type
           rdf:resource="http://purl.org/dc/dcmitype/StillImage" />
        <dc:title></dc:title>
      </cc:Work>
    </rdf:RDF>
  </metadata>
  <g
     inkscape:label="Layer 1"
     inkscape:groupmode="layer"
     id="layer1">
    <g
       aria-label=".com"
       transform="matrix(0.9275527,0,0,1.0781059,-12.516576,23.538065)"
       style="font-style:normal;font-weight:normal;font-size:14.55413914px;line-height:0;font-family:sans-serif;letter-spacing:0px;word-spacing:0px;fill:#000000;fill-opacity:1;stroke:none;stroke-width:0.36385345"
       id="text830">
      <path
         d="m 139.54257,89.328657 h 0.15634 q 0.12792,0 0.30558,0.127917 0.17767,0.120811 0.17767,0.334006 0,0.426391 -0.14924,0.625373 -0.14924,0.198983 -0.48324,0.440604 -0.3269,0.241621 -0.46193,0.241621 -0.29847,0 -0.4406,-0.135023 -0.14213,-0.135024 -0.14213,-0.739078 0,-0.561414 0.064,-0.668012 0.064,-0.106598 0.30558,-0.16345 0.24873,-0.06396 0.66801,-0.06396 z"
         style="font-style:normal;font-variant:normal;font-weight:normal;font-stretch:normal;font-size:14.55413914px;font-family:'Segoe Print';-inkscape-font-specification:'Segoe Print, Normal';font-variant-ligatures:normal;font-variant-caps:normal;font-variant-numeric:normal;font-feature-settings:normal;text-align:start;writing-mode:lr-tb;text-anchor:start;stroke-width:0.36385345"
         id="path832"
         inkscape:connector-curvature="0" />
      <path
         sodipodi:type="inkscape:offset"
         inkscape:radius="0.026953587"
         inkscape:original="M 146.12305 83.402344 C 145.27974 83.402344 144.36742 84.088965 143.38672 85.462891 C 142.40603 86.832079 141.91602 88.13456 141.91602 89.371094 C 141.91602 90.105433 142.10536 90.676544 142.48438 91.083984 C 142.86812 91.491425 143.4163 91.695312 144.12695 91.695312 C 144.94183 91.695312 145.77305 91.421786 146.62109 90.876953 C 147.46913 90.327382 147.89258 89.873735 147.89258 89.513672 C 147.89258 89.328903 147.81147 89.236328 147.65039 89.236328 C 147.49405 89.236328 147.25156 89.351838 146.91992 89.583984 C 145.97713 90.237784 145.15738 90.564453 144.46094 90.564453 C 143.54656 90.564453 143.08789 90.162827 143.08789 89.357422 C 143.08789 88.552017 143.4249 87.564737 144.09766 86.394531 C 144.7704 85.224325 145.35298 84.638672 145.8457 84.638672 C 146.08732 84.638672 146.27247 84.936256 146.40039 85.533203 C 146.51409 86.087511 146.70764 86.365234 146.98242 86.365234 C 147.1056 86.365234 147.22726 86.265389 147.3457 86.066406 C 147.46888 85.862686 147.53125 85.62132 147.53125 85.341797 C 147.53125 84.877504 147.39085 84.439521 147.11133 84.027344 C 146.83654 83.610428 146.5068 83.402344 146.12305 83.402344 z "
         xlink:href="#path834"
         style="font-style:normal;font-variant:normal;font-weight:normal;font-stretch:normal;font-size:14.55413914px;font-family:'Segoe Print';-inkscape-font-specification:'Segoe Print, Normal';font-variant-ligatures:normal;font-variant-caps:normal;font-variant-numeric:normal;font-feature-settings:normal;text-align:start;writing-mode:lr-tb;text-anchor:start;stroke-width:0.36385345"
         id="path853"
         inkscape:href="#path834"
         d="m 146.12305,83.375 c -0.85794,0 -1.77499,0.695362 -2.75782,2.072266 -0.98292,1.372311 -1.47656,2.680173 -1.47656,3.923828 0,0.738972 0.19165,1.317109 0.57617,1.730468 0.38945,0.413501 0.94631,0.621094 1.66211,0.621094 0.82091,0 1.65649,-0.275321 2.50782,-0.822265 a 0.02695628,0.02695628 0 0 0 0.002,0 c 0.42514,-0.275513 0.74274,-0.528101 0.95703,-0.757813 0.21429,-0.229711 0.32617,-0.438308 0.32617,-0.628906 0,-0.09633 -0.0221,-0.173634 -0.0684,-0.226563 -0.0463,-0.05293 -0.11547,-0.07813 -0.20117,-0.07813 -0.16962,0 -0.41284,0.120239 -0.74609,0.353516 -0.94024,0.652027 -1.75535,0.974609 -2.44336,0.974609 -0.45325,0 -0.78945,-0.09972 -1.01172,-0.294921 -0.22227,-0.195204 -0.33399,-0.48718 -0.33399,-0.884766 0,-0.797886 0.33443,-1.78132 1.00586,-2.949219 0.33567,-0.583873 0.64885,-1.020548 0.9375,-1.310547 0.28865,-0.289998 0.55143,-0.43164 0.78711,-0.43164 0.10975,0 0.20718,0.0664 0.29688,0.210937 0.0897,0.144538 0.16883,0.365344 0.23242,0.662109 h -0.002 c 0.0573,0.279236 0.13596,0.489203 0.23633,0.632813 0.10036,0.14361 0.22657,0.220703 0.37304,0.220703 0.13775,0 0.26616,-0.109951 0.38672,-0.3125 0.12597,-0.208339 0.18945,-0.454749 0.18945,-0.738281 0,-0.469727 -0.14363,-0.91403 -0.42578,-1.330078 h 0.002 C 146.85679,83.589971 146.51654,83.375 146.12305,83.375 Z" />
      <path
         d="m 144.12627,91.695126 q -1.06598,0 -1.6416,-0.611161 -0.56852,-0.61116 -0.56852,-1.712669 0,-1.8548 1.47104,-3.908583 1.47105,-2.060888 2.73601,-2.060888 0.57563,0 0.98781,0.625373 0.41928,0.618266 0.41928,1.314705 0,0.419284 -0.18477,0.724864 -0.17766,0.298474 -0.36243,0.298474 -0.41218,0 -0.58273,-0.831462 -0.19188,-0.895421 -0.55431,-0.895421 -0.73908,0 -1.7482,1.755309 -1.00913,1.755308 -1.00913,2.963416 0,1.208107 1.37156,1.208107 1.04466,0 2.45885,-0.980699 0.49746,-0.348219 0.73197,-0.348219 0.24162,0 0.24162,0.277154 0,0.540095 -1.27206,1.364451 -1.27207,0.817249 -2.49439,0.817249 z"
         style="font-style:normal;font-variant:normal;font-weight:normal;font-stretch:normal;font-size:14.55413914px;font-family:'Segoe Print';-inkscape-font-specification:'Segoe Print, Normal';font-variant-ligatures:normal;font-variant-caps:normal;font-variant-numeric:normal;font-feature-settings:normal;text-align:start;writing-mode:lr-tb;text-anchor:start;stroke-width:0.36385345"
         id="path834"
         inkscape:connector-curvature="0" />
      <path
         d="m 151.65207,91.64538 q -0.97359,0 -1.60607,-0.739077 -0.63248,-0.739078 -0.63248,-1.826374 0,-1.833481 1.22942,-3.610109 1.23654,-1.783735 2.95631,-1.783735 1.13705,0 1.84059,0.874101 0.71065,0.874101 0.71065,2.082209 0,1.847693 -1.46394,3.425339 -1.45684,1.577646 -3.03448,1.577646 z m -0.98781,-2.750221 q 0,0.717758 0.29848,1.172575 0.30558,0.454817 0.80303,0.454817 1.05887,0 2.12485,-1.158362 1.06598,-1.165468 1.06598,-2.586771 0,-0.874101 -0.41218,-1.414196 -0.40507,-0.547201 -1.0944,-0.547201 -1.14415,0 -1.96851,1.407089 -0.81725,1.399983 -0.81725,2.672049 z"
         style="font-style:normal;font-variant:normal;font-weight:normal;font-stretch:normal;font-size:14.55413914px;font-family:'Segoe Print';-inkscape-font-specification:'Segoe Print, Normal';font-variant-ligatures:normal;font-variant-caps:normal;font-variant-numeric:normal;font-feature-settings:normal;text-align:start;writing-mode:lr-tb;text-anchor:start;stroke-width:0.36385345"
         id="path836"
         inkscape:connector-curvature="0" />
      <path
         d="m 163.18594,85.668802 q -0.66091,0.01421 -2.82839,3.915689 -0.73197,1.314705 -0.85278,1.435516 -0.12081,0.113704 -0.44771,0.206089 -0.3198,0.09238 -0.53299,0.09238 -0.47614,0 -0.47614,-1.8548 0,-1.044657 0.44771,-3.780665 0.18477,-1.108616 0.18477,-1.584752 0,-0.46903 0.41929,-0.46903 0.78882,0 0.78882,1.137042 0,0.532989 -0.26294,2.089315 -0.30558,1.776628 -0.31269,2.16038 0.4406,-0.426391 1.29339,-1.869013 1.2081,-1.975611 1.77662,-2.501493 0.57563,-0.532988 1.18679,-0.532988 0.46193,0 0.73197,0.618267 0.27716,0.618266 0.33401,2.949203 0.0142,0.582734 0.1066,0.866994 0.0924,0.284261 0.13502,0.284261 0.33401,0 1.44973,-2.274085 0.59695,-1.201 1.15836,-1.826373 0.56852,-0.625374 1.25785,-0.625374 0.57563,0 0.83857,0.596948 0.26294,0.58984 0.37665,1.755308 0.1066,1.179682 0.3269,2.16038 0.22741,0.980699 0.82435,1.257853 0.40507,0.191876 0.40507,0.447711 0,0.248727 -0.34111,0.511668 -0.34111,0.262941 -0.62537,0.262941 -0.56852,0 -1.01623,-0.696438 -0.44771,-0.696438 -0.67512,-3.013161 -0.0995,-0.930954 -0.19188,-1.321812 -0.0924,-0.390858 -0.29136,-0.390858 -0.29848,0 -0.71066,0.568521 -0.40507,0.568521 -1.3147,2.309617 -0.71065,1.357344 -1.08019,1.812161 -0.36243,0.44771 -0.70355,0.44771 -0.30558,0 -0.5472,-0.241622 -0.24162,-0.248727 -0.30558,-0.58984 -0.064,-0.348219 -0.13502,-1.698457 -0.1066,-2.245658 -0.39086,-2.615197 z"
         style="font-style:normal;font-variant:normal;font-weight:normal;font-stretch:normal;font-size:14.55413914px;font-family:'Segoe Print';-inkscape-font-specification:'Segoe Print, Normal';font-variant-ligatures:normal;font-variant-caps:normal;font-variant-numeric:normal;font-feature-settings:normal;text-align:start;writing-mode:lr-tb;text-anchor:start;stroke-width:0.36385345"
         id="path838"
         inkscape:connector-curvature="0" />
    </g>
    <g
       aria-label="Drip"
       transform="matrix(0.97496184,0,0,1.0256812,-0.26458333,0)"
       style="font-style:normal;font-variant:normal;font-weight:bold;font-stretch:normal;font-size:50.24458313px;line-height:0;font-family:serif;-inkscape-font-specification:'serif, Bold';font-variant-ligatures:normal;font-variant-caps:normal;font-variant-numeric:normal;font-feature-settings:normal;text-align:start;letter-spacing:0px;word-spacing:0px;writing-mode:lr-tb;text-anchor:start;fill:#216778;fill-opacity:1;stroke:none;stroke-width:1.25611448"
       id="text817">
      <path
         d="m 31.283751,115.41529 c -1.532627,-0.14123 0.984624,-4.0403 -1.221202,-5.67997 h 1.104006 c 0.964984,0 1.700989,-0.1472 2.208014,-0.44161 0.523381,-0.31075 0.907739,-0.72782 1.153074,-1.2512 0.147201,-0.34347 0.220802,-1.37388 0.220802,-3.09122 V 83.067411 c 0,-2.180986 0.05663,-3.810945 -1.694604,-3.447313 -0.91384,0.189753 0.760372,10.228638 -0.83263,10.181685 -2.44945,-0.156533 1.505886,-11.582892 -1.054656,-11.518402 h -1.104006 v -0.907739 h 14.891827 c 3.974425,0 6.900578,0.475247 9.321215,1.55472 2.069476,0.433655 7.197787,4.948687 10.317936,10.58947 1.266054,8.228439 -1.018234,1.202027 -1.018234,4.587648 0,2.338859 -0.37618,4.497806 -1.128541,6.47684 -0.345318,0.68434 -3.272791,5.16361 -0.587574,7.89888 2.386083,2.43057 -3.364815,7.48927 -2.556368,-0.73369 l 0.224457,-2.28302 v 0 c -1.193963,1.27574 -2.576016,2.30615 -4.146159,3.09122 -1.553787,0.76871 -3.459222,1.36569 -5.716303,1.79094 -1.964842,0.12213 -2.490317,1.85628 -2.294529,2.34177 0.676088,1.67645 -0.06784,0.25796 1.182592,3.59612 1.794357,4.79021 -3.814339,2.75641 -3.059469,-0.0892 0.660546,-2.49008 0.33811,-5.66026 -0.539023,-5.55424 -4.228667,0.24396 -8.036393,0.88805 -12.686001,0.73189 v 0 0 c -0.532787,0.30778 0,0 -0.507973,1.24734 v 0 z m 11.5983,-36.279549 -0.135689,26.085419 c -0.0071,1.37385 0.06542,2.21619 0.196268,2.52694 0.130845,0.31076 0.351647,0.54792 0.662404,0.71148 0.441603,0.24533 1.079473,0.368 1.913612,0.368 2.731395,0 4.816741,-0.93227 6.256039,-2.79682 1.962679,-2.51877 2.944019,-6.427777 2.944019,-11.727012 0,-4.268827 -0.670582,-7.678981 -2.011746,-10.230464 -8.933085,-9.153743 -4.469472,0.800574 -6.335962,1.924979 -3.014947,-1.262445 2.431143,-7.265815 -3.488945,-6.862522 z"
         style="font-style:normal;font-variant:normal;font-weight:bold;font-stretch:normal;font-size:50.24458313px;font-family:serif;-inkscape-font-specification:'serif, Bold';font-variant-ligatures:normal;font-variant-caps:normal;font-variant-numeric:normal;font-feature-settings:normal;text-align:start;writing-mode:lr-tb;text-anchor:start;fill:#216778;stroke-width:1.25611448"
         id="path819"
         inkscape:connector-curvature="0"
         sodipodi:nodetypes="ccsccsssccccsccscssccccsssccccccccsccscsccc" />
      <path
         d="m 77.939179,86.801385 v 5.2011 c 1.521076,-2.371571 2.854062,-3.941714 3.998959,-4.71043 1.144896,-0.785072 2.248903,-1.177608 3.31202,-1.177608 0.915917,0 1.643744,0.286224 2.183481,0.858672 0.556092,0.556093 0.834138,1.349342 0.834138,2.379749 0,1.095829 0.340732,2.7202 -0.809605,3.712297 -2.694406,2.28189 0.350605,6.34467 -1.777923,6.518339 -2.348432,0.191612 3.197752,-5.372729 -2.39277,-6.444739 -0.848431,-0.162691 -1.014051,-2.027664 -1.12854,-2.093087 -0.163557,-0.09813 -0.351647,-0.1472 -0.56427,-0.1472 -0.474314,0 -0.924095,0.179912 -1.349342,0.539736 -0.670582,0.556093 -1.177607,1.349342 -1.521076,2.379749 -0.523381,1.586499 -0.785072,3.336554 -0.785072,5.250166 v 5.274701 l 0.02453,1.37387 c 0,0.93227 0.05725,1.52926 0.171735,1.79095 0.196268,0.4416 0.482492,0.76871 0.858672,0.98134 0.392536,0.19627 1.046762,0.31893 1.962679,0.368 v 0.88321 c -3.747369,-0.80846 -5.930159,1.27775 -4.292469,5.67509 1.389493,3.49305 -3.154731,3.35687 -1.692441,-0.0668 0.822103,-6.15808 -0.538216,-6.94185 -6.404498,-5.6083 v -0.88321 c 0.997695,-0.0818 1.668277,-0.35165 2.011746,-0.8096 0.359824,-0.47432 0.539736,-1.70917 0.539736,-3.70456 V 91.659016 c 0,-1.308453 -0.06542,-2.142591 -0.196268,-2.502416 -0.163556,-0.457959 -1.590966,-2.106031 -0.711471,-1.005873 -2.510248,-0.06449 1.382651,4.088696 -1.508054,2.911859 l -0.135689,-4.261201 z"
         style="font-style:normal;font-variant:normal;font-weight:bold;font-stretch:normal;font-size:50.24458313px;font-family:serif;-inkscape-font-specification:'serif, Bold';font-variant-ligatures:normal;font-variant-caps:normal;font-variant-numeric:normal;font-feature-settings:normal;text-align:start;writing-mode:lr-tb;text-anchor:start;fill:#216778;stroke-width:1.25611448"
         id="path821"
         inkscape:connector-curvature="0"
         sodipodi:nodetypes="cccscscsscsccscccccccccccssccccc" />
      <path
         d="m 96.216626,75.687715 c 1.063118,0 1.962679,0.37618 2.698683,1.128541 0.736007,0.736004 1.104011,1.627387 1.104011,2.67415 0,1.046762 -0.370601,1.943337 -1.128544,2.67415 -4.130028,-0.942434 -0.700661,4.018675 -2.538461,4.006042 -2.010488,-0.01382 2.329148,-4.864298 -2.809839,-4.006042 -1.052168,0.175721 -1.104007,-1.627388 -1.104007,-2.67415 0,-1.046763 0.368002,-1.938146 1.104007,-2.67415 0.736005,-0.752361 1.627388,-1.128541 2.67415,-1.128541 z m 3.434688,11.11367 V 104.9807 c 0,1.61921 0.188089,2.65779 0.564266,3.11575 0.37618,0.44161 1.11219,0.69512 2.20802,0.76054 v 0.88321 c -8.837777,-0.80483 -2.842303,4.87495 -5.94867,4.83672 -2.489588,-0.23687 3.74065,-6.48047 -5.897987,-4.25631 l -0.542756,-1.46362 c 1.014051,-0.0327 1.766411,-0.32713 2.257081,-0.8832 0.327113,-0.37619 0.497776,-1.3739 0.490669,-2.99309 l -0.06785,-15.458954 c -1.77112,-3.179593 0.577878,3.299265 -1.310559,3.164278 -1.865552,-0.16499 1.27055,-4.589029 -1.369346,-4.9769 v -0.907739 z"
         style="font-style:normal;font-variant:normal;font-weight:bold;font-stretch:normal;font-size:50.24458313px;font-family:serif;-inkscape-font-specification:'serif, Bold';font-variant-ligatures:normal;font-variant-caps:normal;font-variant-numeric:normal;font-feature-settings:normal;text-align:start;writing-mode:lr-tb;text-anchor:start;fill:#216778;stroke-width:1.25611448"
         id="path823"
         inkscape:connector-curvature="0"
         sodipodi:nodetypes="scscssscscscccccccsccccc" />
      <path
         d="m 113.51273,107.40951 v 8.53766 c 0,1.17761 0.09,1.97903 0.26987,2.40428 0.19627,0.42525 0.49067,0.736 0.88321,0.93227 0.39253,0.19627 -3.11296,0.68134 -1.96806,0.55236 -3.71808,1.37057 0.22461,6.10737 -1.35689,6.1314 -3.25511,0.83315 3.32495,-6.68376 -7.71663,-4.83672 l 0.27138,-1.55264 c 1.01405,-0.0327 1.76641,-0.31896 2.25708,-0.85867 0.32711,-0.37618 0.49067,-1.34934 0.49067,-2.91948 V 91.585415 c 0,-7.552259 0.17362,2.620334 -1.24272,2.648361 -3.74617,0.391305 0.99918,-6.523719 -1.50503,-6.524652 v -0.907739 h 9.61712 v 3.017619 c 0.80143,-1.177607 1.61921,-2.028102 2.45335,-2.551483 1.19397,-0.768716 2.49424,-1.153074 3.90083,-1.153074 1.68463,0 3.21389,0.531559 4.58776,1.594677 1.39023,1.063118 2.44517,2.535127 3.16482,4.416028 0.71965,1.864545 1.07947,3.876291 1.07947,6.035238 0,2.32251 -0.37618,4.44874 -1.12854,6.37871 -3.83946,5.66084 1.21741,7.94699 -1.46864,8.42755 -2.59069,0.46349 1.1199,-5.88642 -1.83762,-3.90708 -8.24325,0.66241 -0.20819,7.29201 -4.30337,7.42959 -3.3177,0.11146 3.39764,-6.46905 -3.87204,-6.89616 -0.81778,-0.42525 -1.67645,-1.15308 -2.57602,-2.18349 z m 0,-2.47788 c 1.40659,1.99539 2.91131,2.99309 4.51417,2.99309 0.8832,0 1.61103,-0.46614 2.18348,-1.39841 0.85049,-1.37387 1.27574,-3.99078 1.27574,-7.850717 0,-3.958069 -0.46614,-6.664931 -1.39841,-8.120584 -5.16709,-0.964984 -0.0285,5.532575 -2.36673,5.452918 -3.00603,-0.102407 2.14593,-9.89348 -4.20825,-3.318505 z"
         style="font-style:normal;font-variant:normal;font-weight:bold;font-stretch:normal;font-size:50.24458313px;font-family:serif;-inkscape-font-specification:'serif, Bold';font-variant-ligatures:normal;font-variant-caps:normal;font-variant-numeric:normal;font-feature-settings:normal;text-align:start;writing-mode:lr-tb;text-anchor:start;fill:#216778;stroke-width:1.25611448"
         id="path825"
         inkscape:connector-curvature="0"
         sodipodi:nodetypes="cscccccccssccccccsccscscscccscscscc" />
    </g>
  </g>
</svg>
